# xmcd
#
# Track frame offsets:
# 150
# 27655
# 59606
# 80568
# 117774
# 148677
# 181210
# 210755
# 234567
#
# Disc length: 3569 seconds
#
#
# Revision: 0
# Processed by: cddbd v1.5.2PL0 Copyright (c) Steve Scherf et al.
# Submitted via: FreeRIP 2.945 
#
DISCID=790def09
DTITLE=Bais and Pistoor - Feng Shui
DYEAR=1900
DGENRE=
TTITLE0=Thuder
TTITLE1=Heaven
TTITLE2=Fire
TTITLE3=Earth
TTITLE4=Lake
TTITLE5=Wind
TTITLE6=Water
TTITLE7=Mountain
TTITLE8=Heaven's pool
EXTD=
EXTT0=
EXTT1=
EXTT2=
EXTT3=
EXTT4=
EXTT5=
EXTT6=
EXTT7=
EXTT8=
PLAYORDER=
